<svg width="80" height="80" viewBox="0 0 80 80" fill="none" xmlns="http://www.w3.org/2000/svg">
<path d="M27.3032 34.529C27.0859 34.6584 26.8471 34.7199 26.6118 34.7199C26.1434 34.7199 25.6877 34.4768 25.433 34.0393C25.0503 33.3822 25.2674 32.5364 25.9177 32.1498L31.4926 28.8361C32.1424 28.4495 32.9803 28.6686 33.3628 29.3258C33.7455 29.9829 33.5284 30.8287 32.8781 31.2153L27.3032 34.529Z" fill="#FF7F22"/>
<path fill-rule="evenodd" clip-rule="evenodd" d="M79.9793 45.6738L78.8555 39.1935C78.7515 38.5936 78.2705 38.1333 77.6719 38.0612L71.8043 37.3531L69.7658 33.5471C70.4248 32.408 70.6418 31.0519 70.36 29.7514C70.0409 28.2787 69.1115 27.0111 67.8096 26.2738L62.151 23.0679C61.4932 22.6951 60.6604 22.9317 60.2912 23.5966C59.9223 24.2615 60.1565 25.1026 60.8147 25.4755L66.4733 28.6813C67.7752 29.4191 68.1541 31.1373 67.2712 32.364C66.6214 33.2666 65.4423 33.6321 64.4028 33.2521L48.2898 27.3597C49.4245 26.6081 50.362 25.5259 50.9411 24.1774C51.4905 22.8977 51.6623 21.518 51.4544 20.1727L55.9717 22.7319C56.1832 22.8517 56.4125 22.9085 56.6387 22.9085C57.1169 22.9085 57.581 22.6544 57.8317 22.2032C58.2006 21.5383 57.9663 20.6971 57.3084 20.3243L48.4359 15.2975C48.051 15.0292 47.6373 14.797 47.1987 14.6049C45.4334 13.8314 43.4756 13.7986 41.686 14.5128C39.8963 15.227 38.4891 16.6022 37.7233 18.3856C37.5399 18.8127 37.4006 19.2481 37.3029 19.6867L11.5563 31.1266C7.82049 31.2212 4.32638 33.1045 2.16201 36.2055C1.7272 36.8284 1.87475 37.6894 2.49152 38.1287C3.10849 38.5682 3.96061 38.4189 4.39523 37.796C6.10039 35.3527 8.87699 33.8914 11.8268 33.8831L11.8527 33.8833L11.8713 33.8831C16.8911 33.8936 20.9716 38.0225 20.9716 43.0962C20.9716 48.1764 16.8805 52.3093 11.852 52.3093C6.82337 52.3093 2.73234 48.1764 2.73234 43.0962C2.73234 42.8537 2.74399 42.5949 2.7684 42.3057C2.83216 41.5462 2.27403 40.8784 1.52227 40.814C0.772339 40.7483 0.109475 41.313 0.0457207 42.0727C0.0149364 42.4402 0 42.7749 0 43.0962C0 47.5144 2.38096 51.3813 5.91478 53.4562L12.1582 67H15.1721L9.56991 54.8472C10.3086 54.9933 11.0716 55.0701 11.852 55.0701C15.2029 55.0701 18.2334 53.6579 20.3911 51.3918L27.489 67H30.4964L22.3572 49.1018L43.9984 28.7259L63.4729 35.8474C64.0488 36.0581 64.6456 36.1593 65.237 36.1593C66.1043 36.1593 66.9599 35.9412 67.7218 35.5309L69.4015 38.6666L66.7788 44.0162C66.5112 44.562 66.6294 45.2202 67.0697 45.6365L71.8247 50.1316C72.0881 50.3808 72.4233 50.5041 72.7577 50.5041C73.1227 50.5041 73.4867 50.3574 73.7557 50.067C74.2712 49.5105 74.2426 48.637 73.6914 48.1162L69.678 44.322L71.736 40.1244L76.3398 40.6802L77.2883 46.1501C77.4187 46.9011 78.1271 47.4035 78.8698 47.2715C79.6126 47.14 80.1095 46.4245 79.9793 45.6738ZM44.3383 16.7644C46.1216 16.7644 47.7986 17.8516 48.4909 19.6221C49.7214 22.77 47.2047 26.1207 43.8724 25.7749C41.1218 25.3776 39.6628 23.0856 39.8824 20.835C39.8859 20.8092 39.8886 20.7834 39.8906 20.7575C40.1526 18.4796 42.0687 16.7644 44.3383 16.7644ZM16.3426 32.0155L37.2723 22.7157C37.6944 24.8207 39.0285 26.7077 41.0289 27.7487L23.6629 44.0997C23.6903 43.7688 23.7041 43.4343 23.7041 43.0964C23.7041 38.0989 20.6577 33.8067 16.3426 32.0155Z" fill="#FF7F22"/>
<path d="M23.0775 67L18.974 57.9765C18.6591 57.2841 17.8477 56.9799 17.1623 57.2986C16.4767 57.6168 16.1763 58.4362 16.491 59.1289L20.0705 67H23.0775Z" fill="#FF7F22"/>
<path fill-rule="evenodd" clip-rule="evenodd" d="M17.8913 43.0964C17.8913 39.7321 15.1821 36.9951 11.8519 36.9951C8.52173 36.9951 5.81253 39.7323 5.81253 43.0964C5.81253 46.4606 8.52173 49.1977 11.8519 49.1977C15.1821 49.1977 17.8913 46.4607 17.8913 43.0964ZM8.54468 43.0964C8.54468 41.2542 10.0283 39.7555 11.8517 39.7555C13.6751 39.7555 15.1588 41.2544 15.1588 43.0964C15.1588 44.9385 13.6751 46.4374 11.8517 46.4374C10.0283 46.4374 8.54468 44.9387 8.54468 43.0964Z" fill="#FF7F22"/>
</svg>
