<svg width="80" height="80" viewBox="0 0 80 80" fill="#FF7F22" xmlns="http://www.w3.org/2000/svg">
<path d="M61 15.685V10H59V15.08C58.6688 15.0294 58.335 15.0031 58 15H56V10H54V15H51V10H49V15H46V10H44V15H41V10H39V15H36V10H34V15H31V10H29V15H26V10H24V15H22C21.665 15.0031 21.3313 15.0294 21 15.08V10H19V15.685C17.5484 16.3784 16.3784 17.5484 15.685 19H10V21H15.08C15.0294 21.3313 15.0031 21.665 15 22V24H10V26H15V29H10V31H15V34H10V36H15V39H10V41H15V44H10V46H15V49H10V51H15V54H10V56H15V58C15.0031 58.335 15.0294 58.6688 15.08 59H10V61H15.685C16.3784 62.4516 17.5484 63.6216 19 64.315V70H21V64.92C21.3313 64.9706 21.665 64.9969 22 65H24V70H26V65H29V70H31V65H34V70H36V65H39V70H41V65H44V70H46V65H49V70H51V65H54V70H56V65H58C58.335 64.9969 58.6688 64.9706 59 64.92V70H61V64.315C62.4516 63.6216 63.6216 62.4516 64.315 61H70V59H64.92C64.9706 58.6688 64.9969 58.335 65 58V56H70V54H65V51H70V49H65V46H70V44H65V41H70V39H65V36H70V34H65V31H70V29H65V26H70V24H65V22C64.9969 21.665 64.9706 21.3313 64.92 21H70V19H64.315C63.6216 17.5484 62.4516 16.3784 61 15.685ZM63 58C62.9966 60.76 60.76 62.9966 58 63H22C19.24 62.9966 17.0034 60.76 17 58V22C17.0034 19.24 19.24 17.0034 22 17H58C60.76 17.0034 62.9966 19.24 63 22V58Z" fill="#FF7F22"/>
<path d="M57 20H23C21.3434 20 20 21.3434 20 23V57C20 58.6566 21.3434 60 23 60H57C58.6566 60 60 58.6566 60 57V23C60 21.3434 58.6566 20 57 20ZM58 57C58 57.5525 57.5525 58 57 58H23C22.4475 58 22 57.5525 22 57V23C22 22.4475 22.4475 22 23 22H57C57.5525 22 58 22.4475 58 23V57Z" fill="#FF7F22"/>
<path d="M54 24H56V26H54V24Z" fill="#FF7F22"/>
<path d="M24 54H26V56H24V54Z" fill="#FF7F22"/>
<path d="M24 26V29H26V26H29V24H26C24.8953 24 24 24.8953 24 26Z" fill="#FF7F22"/>
<path d="M54 54H51V56H56V51H54V54Z" fill="#FF7F22"/>
</svg>
