<svg width="80" height="80" viewBox="0 0 80 80" fill="none" xmlns="http://www.w3.org/2000/svg">
<path fill-rule="evenodd" clip-rule="evenodd" d="M40 67C54.9117 67 67 54.9117 67 40C67 25.0883 54.9117 13 40 13C25.0883 13 13 25.0883 13 40C13 54.9117 25.0883 67 40 67ZM40 70C56.5685 70 70 56.5685 70 40C70 23.4315 56.5685 10 40 10C23.4315 10 10 23.4315 10 40C10 56.5685 23.4315 70 40 70ZM21.2727 27.8984C21.2209 27.9976 21.1756 28.1004 21.137 28.2059C21.073 28.4062 21.0557 28.6211 21.0384 28.8364C21.0294 28.948 21.0204 29.0597 21.0049 29.1695C20.965 29.4576 21.1734 29.8569 21.4825 29.8981C21.623 29.917 21.837 29.7226 21.9454 29.573C22.2391 29.1688 22.702 29.0234 23.1117 28.9709C23.5617 28.913 24.0283 28.969 24.4918 29.0246L24.4919 29.0246C24.6219 29.0402 24.7517 29.0558 24.8809 29.0688C25.3361 29.1157 25.7479 29.5548 25.8878 30.0247C25.9241 30.1478 26.0871 30.254 26.2143 30.324C26.2886 30.3667 26.3732 30.3961 26.4571 30.4251C26.5776 30.467 26.6968 30.5083 26.7821 30.5883C27.5066 31.2645 27.8352 32.1623 28.1023 33.0825C28.1989 33.3905 28.2392 33.7134 28.2212 34.0356C28.161 34.7304 28.0719 35.4226 27.9828 36.1149L27.9828 36.115L27.9827 36.115C27.9569 36.316 27.931 36.5169 27.9058 36.718C27.8902 36.8424 27.8765 36.9676 27.8628 37.0931C27.8225 37.4611 27.7821 37.8307 27.6919 38.1864C27.628 38.4376 27.5267 38.6789 27.4252 38.9205C27.3433 39.1155 27.2613 39.3107 27.1989 39.5115C27.1328 39.7252 27.0905 39.9465 27.0481 40.1679C27.0117 40.3586 26.9752 40.5495 26.9234 40.7359C26.7912 41.2135 26.9632 41.7197 27.4094 41.8876C27.8404 42.0513 28.2995 42.1282 28.7603 42.1138C29.2211 42.0994 29.6746 41.994 30.0945 41.8037C30.454 41.6322 30.8528 41.5597 31.2497 41.5939C31.3235 41.6003 31.3962 41.6245 31.4687 41.6486L31.4687 41.6486C31.5529 41.6765 31.6368 41.7044 31.7217 41.7044C32.5614 41.7188 33.3903 41.8957 34.1628 42.2253C34.3523 42.3029 34.6984 42.2316 34.862 42.0931C35.0256 41.9547 35.1515 41.6156 35.0956 41.4219C35.0062 41.1128 35.0982 40.881 35.1943 40.6389L35.1943 40.6389L35.1944 40.6389C35.2118 40.595 35.2293 40.5509 35.2459 40.5058C35.2628 40.5097 35.2778 40.5117 35.2907 40.5135L35.2907 40.5135C35.313 40.5165 35.3285 40.5186 35.3347 40.5275C35.8109 41.196 36.1675 41.8876 35.9508 42.7595C35.9168 42.923 35.8497 43.0777 35.7534 43.2141C35.6572 43.3505 35.534 43.4657 35.3914 43.5525C35.0739 43.7441 34.7403 43.9441 34.3907 44.0371C34.0931 44.1153 33.7754 44.1207 33.4601 44.1262L33.4598 44.1262L33.4596 44.1262C33.3802 44.1276 33.301 44.1289 33.2223 44.1315C33.1778 44.1241 33.1359 44.1057 33.1003 44.078C33.0648 44.0503 33.0367 44.0141 33.0188 43.9727C33.0027 43.914 33.0775 43.8014 33.1426 43.756C33.2808 43.6499 33.4346 43.5657 33.5985 43.5063L33.6118 43.5022C33.8133 43.439 33.9899 43.3836 33.9173 43.1148C33.8582 42.8952 33.7006 42.9129 33.5462 42.9302H33.5461C33.5161 42.9336 33.4862 42.937 33.4572 42.9385C33.3388 42.9449 33.2203 42.951 33.1017 42.9571C32.6879 42.9785 32.2739 42.9998 31.8608 43.0329C31.6432 43.0625 31.4274 43.1048 31.2147 43.1595C31.2333 43.2255 31.2567 43.29 31.2846 43.3525C31.558 43.7944 31.5392 43.814 31.1385 44.1308C31.0748 44.1841 31.0227 44.2499 30.9855 44.3241C30.9482 44.3983 30.9265 44.4793 30.9217 44.5622C30.9301 44.7482 30.9725 44.9323 31.0151 45.1169L31.0151 45.1169L31.0151 45.1169C31.0404 45.2265 31.0657 45.3363 31.0839 45.4468C31.1434 45.809 30.9665 45.9502 30.6245 45.8985C30.4398 45.8722 30.2518 45.9137 30.0952 46.0153C29.9183 46.146 29.8875 46.3684 30.0456 46.5747C30.0742 46.6246 30.0917 46.6802 30.0966 46.7376C30.1265 46.8811 30.1545 47.0252 30.1825 47.1693L30.1826 47.1694C30.2442 47.4867 30.306 47.8042 30.3882 48.1158C30.4525 48.3599 30.6161 48.5731 30.9154 48.5221C31.2021 48.4739 31.4832 48.3655 31.3993 47.9844C31.3206 47.6051 31.2174 47.2314 31.0902 46.8656C30.9742 46.5439 31.1755 46.3922 31.379 46.2817C31.6258 46.1479 31.7495 46.3618 31.8566 46.5467L31.8594 46.5516L31.9165 46.6494C31.9959 46.7852 32.0755 46.9214 32.1482 47.0607C32.1814 47.1229 32.2186 47.1848 32.2558 47.2468C32.3575 47.4162 32.4597 47.5863 32.4818 47.7655C32.5286 48.1543 32.7188 48.1997 33.0461 48.1851C34.0018 48.1424 34.9576 48.12 35.914 48.0977H35.9141H35.9141L36.0046 48.0956C36.1247 48.0925 36.2459 48.0998 36.3668 48.1071H36.3669C36.5487 48.1181 36.7302 48.129 36.9073 48.1046C37.365 48.0331 37.8188 47.9381 38.2667 47.82C38.3961 47.7883 38.5219 47.7418 38.6478 47.6952L38.6478 47.6952C38.7551 47.6554 38.8625 47.6157 38.9722 47.5851C39.3261 47.4872 39.682 47.3963 40.0421 47.3264C40.1174 47.3119 40.2021 47.3404 40.2854 47.3685C40.3152 47.3785 40.3447 47.3884 40.3735 47.3963C40.6344 47.4669 40.8952 47.5382 41.1539 47.6166C41.193 47.6284 41.2343 47.6385 41.276 47.6488L41.2761 47.6488L41.2762 47.6488C41.4 47.6792 41.5267 47.7103 41.6056 47.7872C41.9874 48.1564 42.3371 48.5501 42.6867 48.9479C42.7126 48.9904 42.7283 49.0382 42.7324 49.0878C42.7365 49.1373 42.729 49.1871 42.7105 49.2332C42.6755 49.3032 42.5426 49.3885 42.4727 49.3731C42.2236 49.3175 41.9827 49.2439 41.7412 49.1702L41.7409 49.1701C41.6666 49.1474 41.5922 49.1247 41.5175 49.1025C41.4221 49.0619 41.3231 49.0305 41.2217 49.0088C40.5956 48.9355 39.9626 49.0672 39.4177 49.3843C39.2045 49.5181 38.9773 49.628 38.7401 49.7122C38.1548 49.8975 37.58 50.0947 37.0766 50.4625C36.9577 50.5499 36.806 50.6478 36.671 50.6443C36.3256 50.6366 36.0417 50.7171 35.9018 51.0513C35.7825 51.3463 35.6867 51.6503 35.6151 51.9603C35.5969 52.038 35.6816 52.1561 35.7445 52.2337C36.0039 52.5512 36.3738 52.5995 36.7276 52.5176C36.9864 52.4582 37.0926 52.5358 37.1262 52.7456C37.167 53.0324 37.1925 53.3211 37.2024 53.6106C37.2171 53.8756 37.0878 54.0112 36.815 54.0469C36.6103 54.0741 36.4109 54.1328 36.2242 54.221C35.9939 54.323 35.7796 54.4577 35.5878 54.621C35.5298 54.6736 35.4428 54.7078 35.3552 54.7423C35.1368 54.8281 34.9144 54.9156 35.127 55.2944C35.0686 55.3221 35.0012 55.3404 34.9345 55.3585C34.7403 55.4113 34.551 55.4628 34.5984 55.7412C34.6578 56.0873 34.4558 56.1943 34.2054 56.2356C33.839 56.2957 33.8173 56.4859 33.9089 56.7852C34.0036 57.0931 34.0923 57.4029 34.1811 57.7129L34.1811 57.7129L34.1812 57.7131C34.2603 57.9895 34.3395 58.2659 34.4229 58.541C34.4349 58.5813 34.48 58.6117 34.5253 58.6421C34.546 58.6561 34.5668 58.6701 34.5844 58.6851C34.6013 58.6602 34.6229 58.6355 34.6444 58.6108L34.6444 58.6108C34.6907 58.5579 34.7369 58.505 34.7369 58.4501C34.7459 58.2024 34.7475 57.9545 34.749 57.7065C34.7504 57.4772 34.7518 57.2479 34.7592 57.0187C34.7616 56.9506 34.7981 56.8837 34.8346 56.8169C34.8517 56.7856 34.8687 56.7544 34.8823 56.723C34.9726 56.7802 35.0595 56.8428 35.1424 56.9104C35.2218 56.9829 35.2984 57.0586 35.3749 57.1343C35.5116 57.2693 35.648 57.404 35.799 57.5201C35.9543 57.6362 36.0242 57.7278 35.9543 57.9215C35.785 58.3879 35.8312 58.4676 36.3326 58.5431C36.5168 58.5629 36.7029 58.5596 36.8864 58.5333C37.0665 58.5167 37.2463 58.495 37.426 58.4733L37.4262 58.4733C37.6913 58.4413 37.9564 58.4093 38.2226 58.3935C38.3067 58.3881 38.3922 58.4319 38.4794 58.4766C38.5287 58.5018 38.5785 58.5274 38.6289 58.5445C38.6736 58.5601 38.7222 58.5818 38.7714 58.6038C38.897 58.6599 39.026 58.7176 39.1009 58.6774C39.3694 58.5347 39.6512 58.3452 39.8162 58.0998C39.9722 57.8676 40.1022 57.8467 40.3498 57.8613C40.6421 57.8781 40.9441 57.818 41.2336 57.7537C41.3691 57.7239 41.4983 57.6645 41.6273 57.6052L41.6273 57.6052C41.6894 57.5766 41.7514 57.5481 41.814 57.5229C41.8803 57.496 41.9575 57.4749 42.0346 57.4538C42.202 57.408 42.3689 57.3623 42.4231 57.2579C42.5706 56.9726 42.7727 56.8174 43.0335 56.6775C43.171 56.5912 43.2838 56.4708 43.3608 56.3279C43.4475 56.1775 43.4475 56.0188 43.2377 55.93C42.8181 55.7552 42.7958 55.6678 43.1174 55.3356C43.201 55.25 43.3174 55.1939 43.4327 55.1384L43.4328 55.1384C43.4718 55.1196 43.5107 55.1009 43.5482 55.0811C43.6723 55.0153 43.7978 54.9515 43.9234 54.8876L43.9236 54.8874C44.0823 54.8067 44.241 54.726 44.3971 54.6413C44.4803 54.5962 44.5608 54.5452 44.6413 54.4943C44.7765 54.4088 44.9114 54.3235 45.0579 54.2665C45.107 54.2473 45.1565 54.2288 45.2059 54.2104C45.5703 54.0744 45.9288 53.9406 46.1067 53.533C46.1235 53.4934 46.1629 53.4653 46.2024 53.4371C46.2223 53.4229 46.2421 53.4088 46.2592 53.3931C46.3292 53.3293 46.4003 53.2664 46.4714 53.2035L46.4715 53.2034L46.4716 53.2034C46.6474 53.0479 46.8233 52.8923 46.9836 52.7225C47.1472 52.5491 47.2535 52.5561 47.3423 52.7659C47.3929 52.8855 47.4345 53.0089 47.4823 53.1507L47.4824 53.1507L47.4824 53.1508C47.5053 53.2187 47.5296 53.2908 47.557 53.3686C47.743 52.7917 48.0059 52.333 48.4954 52.0338C48.5227 52.0124 48.5451 51.9855 48.561 51.9547C48.577 51.9239 48.5861 51.8901 48.5877 51.8554C48.5923 51.5775 48.7776 51.4268 48.9609 51.2778L49.0003 51.2457C49.0429 51.2107 49.089 51.1758 49.1357 51.1405C49.3025 51.0144 49.4771 50.8823 49.5317 50.7157C49.6685 50.3096 49.7546 49.8876 49.8409 49.4645C49.8689 49.3272 49.897 49.1898 49.9268 49.0528C49.9382 49.0018 49.9381 48.9493 49.938 48.897V48.8969C49.938 48.8438 49.9379 48.791 49.9499 48.7403C49.9893 48.574 50.0323 48.4081 50.0753 48.2421L50.0754 48.242L50.0754 48.242C50.229 47.6493 50.383 47.0549 50.3792 46.4327C50.3757 45.7607 50.361 45.0881 50.3267 44.4175C50.3219 44.328 50.1862 44.2245 50.0883 44.165C49.8652 44.0287 49.7044 43.886 49.7492 43.5826C49.7656 43.471 49.7366 43.3528 49.7118 43.2512C49.7017 43.2102 49.6924 43.1719 49.6869 43.1378H49.1212C49.1352 43.0837 49.1485 43.0294 49.1618 42.975C49.1901 42.8602 49.2183 42.7453 49.252 42.6323C49.2852 42.5221 49.3317 42.4101 49.3782 42.2983C49.4778 42.0588 49.5772 41.8199 49.5443 41.6002C49.4985 41.2958 49.3498 41.0071 49.201 40.7179L49.201 40.7179C49.134 40.5879 49.067 40.4578 49.0093 40.3261C48.9904 40.2828 48.9688 40.2394 48.9472 40.1959C48.8883 40.0773 48.8289 39.9579 48.8213 39.8366C48.78 39.1675 48.7597 38.4969 48.7513 37.8263C48.7484 37.6193 48.7593 37.4118 48.7703 37.2043V37.2043V37.2043V37.2043V37.2042C48.78 37.02 48.7898 36.8357 48.7898 36.6515C48.7897 36.6041 48.7904 36.5557 48.7912 36.5069L48.7912 36.5067C48.7949 36.274 48.7987 36.0314 48.708 35.839C48.5779 35.5621 48.6178 35.4062 48.8352 35.2397C49.0527 35.0733 49.145 34.8677 49.1786 34.588C49.2085 34.3391 49.2733 34.0948 49.3382 33.8504L49.3383 33.8503L49.3383 33.8502C49.3674 33.7404 49.3966 33.6306 49.4226 33.5203C49.4367 33.4782 49.4403 33.4333 49.4331 33.3895C49.3956 33.2634 49.3555 33.1377 49.3153 33.0121C49.282 32.9078 49.2487 32.8037 49.217 32.6993C49.0366 32.1113 49.2149 31.4861 49.6471 31.3372C49.8736 31.2589 49.9247 31.1456 49.9352 30.9358C49.9466 30.7129 49.9655 30.4904 49.9844 30.268L49.9844 30.2679C50.0038 30.0404 50.0231 29.8129 50.0345 29.5849C50.0376 29.5165 50.0086 29.447 49.9793 29.377C49.9634 29.3389 49.9474 29.3007 49.9366 29.2625C49.9226 29.2129 49.9065 29.1634 49.8905 29.1139L49.8904 29.1139L49.8904 29.1139L49.8904 29.1139C49.85 28.9894 49.8095 28.8648 49.803 28.7388C49.7999 28.6796 49.797 28.6205 49.7941 28.5615V28.5615V28.5614C49.7824 28.3196 49.7707 28.0792 49.7393 27.8439C48.7451 27.1516 47.0267 26.3082 44.1353 25.7145H43.1461C43.3941 25.9817 43.5702 26.3074 43.658 26.6613C43.6905 26.7806 43.8204 26.8735 43.9659 26.9776L43.9659 26.9776C44.0361 27.0278 44.1099 27.0806 44.1782 27.1403C44.1457 27.1552 44.1114 27.1752 44.078 27.1947L44.0779 27.1948L44.0779 27.1948C44.0051 27.2373 43.9363 27.2774 43.8985 27.2577C43.667 27.1389 43.4251 27.0116 43.2433 26.8305C42.9879 26.5796 42.7523 26.3064 42.5166 26.0331C42.4239 25.9255 42.3311 25.8179 42.2371 25.7117H36.5032C36.3564 25.7645 36.2094 25.8171 36.0624 25.8696L36.0624 25.8696C35.6513 26.0165 35.2401 26.1634 34.8327 26.3179C34.7487 26.3499 34.671 26.3993 34.5935 26.4486C34.5063 26.504 34.4194 26.5593 34.3243 26.5893L34.2929 26.5992C33.9205 26.717 33.5422 26.8367 33.1572 26.8843C32.9103 26.915 32.6595 26.9127 32.4085 26.9103C32.2303 26.9087 32.0519 26.907 31.8748 26.9172C31.8226 26.9201 31.7748 26.9675 31.7257 27.0163C31.6906 27.0512 31.6548 27.0867 31.6161 27.1074L31.6135 27.1088C31.5206 27.1584 31.3874 27.2295 31.3133 27.1969C31.214 27.1536 31.0797 27.0081 31.0909 26.9242C31.119 26.7175 32.0619 26.0612 32.9942 25.4123L32.9943 25.4122C33.1943 25.2729 33.3939 25.134 33.5838 25C26.2871 25.237 22.8324 26.7827 21.2727 27.8984ZM39.5897 29.1576C39.7182 29.173 39.8476 29.18 39.9771 29.1786L39.5016 28.6653L39.5477 28.5835L41.1721 29.1429C41.1826 29.1471 41.2001 29.1541 41.2001 29.1632C41.2331 29.2642 41.2679 29.3648 41.3027 29.4654L41.3027 29.4656L41.3028 29.4658C41.3911 29.721 41.4793 29.9762 41.5385 30.238C41.565 30.3527 41.541 30.4793 41.5147 30.6183C41.5021 30.6851 41.4889 30.7548 41.4805 30.8274C40.9022 31.161 40.4141 31.0911 39.961 30.5596C39.7883 30.3561 39.6156 30.3498 39.4219 30.5177C39.4165 30.5222 39.4104 30.5269 39.4042 30.5317C39.3835 30.5475 39.3605 30.5651 39.3519 30.5876C39.1665 31.0856 38.7299 31.2145 38.3038 31.3404C38.2398 31.3592 38.1761 31.3781 38.1136 31.398C37.9141 31.4548 37.7005 31.4333 37.5164 31.3379C37.1893 31.1417 36.8869 30.9069 36.6158 30.6386C36.3997 30.4275 36.2074 30.3869 35.9717 30.5512C35.6557 30.7729 35.3543 31.0085 35.306 31.44C35.2727 31.6871 35.3374 31.9375 35.4864 32.1375C35.6354 32.3375 35.8568 32.4711 36.1032 32.5098C36.1561 32.5267 36.2066 32.5502 36.2535 32.5798C35.941 32.977 35.6557 33.0119 35.2047 32.7028C35.1815 32.687 35.159 32.6711 35.137 32.6556L35.1369 32.6555L35.1368 32.6554C34.9347 32.5126 34.7724 32.3978 34.4572 32.5952C34.025 32.8658 33.6992 32.6049 33.688 32.0966C33.6849 31.96 33.677 31.8233 33.6691 31.6866L33.6691 31.6865V31.6865C33.6589 31.5117 33.6488 31.3369 33.6488 31.1624C33.6487 31.038 33.68 30.9156 33.7397 30.8065C33.7946 30.7111 33.8617 30.6228 33.9289 30.5345C33.9892 30.4552 34.0496 30.3758 34.1012 30.2911C34.6334 29.4191 35.4263 28.9045 36.3815 28.6087C36.4034 28.602 36.4304 28.6115 36.4688 28.6251C36.4906 28.6328 36.5162 28.6419 36.5465 28.65L36.1521 28.9996L36.1612 29.058L36.1703 29.1164C36.2641 29.1203 36.3583 29.1275 36.4524 29.1348C36.6601 29.1508 36.8679 29.1669 37.0724 29.1471L37.0994 29.1445C37.9295 29.065 38.7596 28.9854 39.5897 29.1576ZM37.6935 30.2545L37.6935 30.2545L37.6936 30.2546C37.7271 30.2949 37.7676 30.3438 37.8103 30.3996L37.8212 30.3829C37.9769 30.1437 38.0859 29.9761 38.1816 29.8032C38.1308 29.7483 38.0721 29.7011 38.0075 29.6633C37.8631 29.8087 37.7296 29.9646 37.6082 30.1297C37.5998 30.1416 37.6364 30.1857 37.6935 30.2545L37.6935 30.2545ZM23.5129 31.6457C23.4791 31.6455 23.4388 31.6453 23.3909 31.6415L23.3281 31.6662C23.2586 31.6934 23.1646 31.7302 23.0713 31.7701C22.9991 31.8009 22.9279 31.8347 22.8566 31.8685L22.8566 31.8685L22.8565 31.8685L22.8565 31.8685L22.8565 31.8685L22.8565 31.8685L22.8565 31.8685L22.8565 31.8685L22.8565 31.8686L22.8565 31.8686L22.8564 31.8686C22.7171 31.9347 22.5776 32.0008 22.4315 32.0443C22.0049 32.1708 21.8077 32.4778 21.935 32.875C22.0756 33.3148 22.5685 33.6232 22.9182 33.477C23.1909 33.3637 23.4617 33.2456 23.7324 33.1274C24.0032 33.0092 24.274 32.891 24.5467 32.7778C24.725 32.7043 24.7831 32.575 24.6551 32.4617C24.3851 32.2239 24.0956 32.008 23.8066 31.7925L23.8066 31.7925L23.8066 31.7925L23.8065 31.7925L23.8065 31.7925L23.8065 31.7924L23.8065 31.7924L23.8065 31.7924L23.8065 31.7924L23.8065 31.7924L23.8065 31.7924C23.7497 31.7501 23.6929 31.7077 23.6363 31.6653C23.611 31.6462 23.5718 31.646 23.5129 31.6457ZM51.7667 51.7426C51.7743 51.6734 51.7827 51.5974 51.7964 51.5129C51.7371 51.5429 51.6935 51.5633 51.6607 51.5787C51.6055 51.6046 51.5809 51.6162 51.5629 51.6346L51.5627 51.6348C51.1425 52.0641 50.7223 52.4934 50.3077 52.9282C50.1064 53.139 49.9084 53.3531 49.7104 53.5672C49.3342 53.974 48.9582 54.3808 48.5596 54.7638C48.2507 55.0608 47.9308 55.3468 47.611 55.6327C46.8332 56.3281 46.0558 57.0231 45.4374 57.8769C45.2174 58.1963 45.02 58.5306 44.8465 58.8775C44.8249 58.9181 44.9878 59.1075 44.9934 59.1041C45.1019 59.0414 45.2251 59.004 45.3487 58.9666C45.6168 58.8852 45.8864 58.8035 46.0094 58.4621C46.0702 58.2936 46.2982 58.165 46.4765 58.065C46.573 58.0111 46.6807 57.9751 46.788 57.9393C46.9201 57.8952 47.0518 57.8512 47.1618 57.7741C47.5676 57.4863 47.9583 57.1777 48.3323 56.8497L48.3418 56.8415C48.5927 56.6266 48.8521 56.4043 49.0386 56.1371C49.1859 55.9244 49.3089 55.6959 49.432 55.4674C49.5337 55.2784 49.6355 55.0894 49.7511 54.9092C49.9797 54.5636 50.2277 54.2312 50.4937 53.9135C50.5697 53.8204 50.6584 53.7365 50.7468 53.6529L50.7469 53.6529C50.8691 53.5372 50.9908 53.4221 51.0776 53.2842C51.3102 52.8971 51.517 52.4951 51.6964 52.0807C51.7399 51.9865 51.7519 51.8775 51.7667 51.7426ZM49.8504 58.1627C49.4742 58.6858 49.0978 59.2088 48.7211 59.7319C48.6381 59.8469 48.557 59.9634 48.4758 60.08L48.4758 60.08C48.2768 60.3661 48.0777 60.652 47.8512 60.9143C47.5731 61.2244 47.2657 61.5068 46.9331 61.7576C46.7828 61.8744 46.6121 61.8275 46.6289 61.5695C46.6331 61.5057 46.6354 61.4417 46.6376 61.3778C46.6411 61.28 46.6446 61.1822 46.6548 61.0849L46.6615 61.018C46.6933 60.6956 46.7214 60.4098 47.1212 60.2109C47.3887 60.0785 47.6097 59.8544 47.8315 59.6297L47.8315 59.6296C47.953 59.5065 48.0747 59.3832 48.2043 59.2746C48.6533 58.8969 49.1134 58.5354 49.5777 58.1718C49.6433 58.1337 49.7139 58.1047 49.7875 58.0858L49.8504 58.1627ZM49.7689 56.7294C49.8366 56.6289 49.908 56.5227 49.9877 56.4091C49.9328 56.417 49.8921 56.4203 49.861 56.4229C49.8177 56.4265 49.7928 56.4286 49.7737 56.4391C49.6896 56.4911 49.6033 56.5408 49.5171 56.5906C49.2935 56.7194 49.0698 56.8484 48.8821 57.0174C48.6563 57.2209 48.4864 57.4999 48.3423 57.7726C48.3093 57.8349 48.3497 57.9358 48.3901 58.0368L48.3901 58.0369C48.4087 58.0834 48.4273 58.1298 48.4388 58.1726C48.4663 58.1648 48.497 58.1599 48.5277 58.1549C48.5937 58.1443 48.6597 58.1336 48.694 58.095C48.9583 57.8027 49.2073 57.4978 49.4478 57.1859C49.558 57.0428 49.6584 56.8935 49.7689 56.7294ZM23.5312 35.5509L23.6634 35.139C23.8085 35.1833 23.9501 35.2383 24.0871 35.3034C24.2464 35.3957 24.397 35.5024 24.5367 35.6222C24.5997 35.6754 24.6766 35.7747 24.6647 35.839C24.6528 35.9033 24.5479 35.9656 24.4703 35.997C24.3631 36.0377 24.2509 36.0638 24.1368 36.0746C23.648 36.1264 23.5599 36.0453 23.5312 35.5509ZM26.647 34.6382C26.5998 34.8003 26.5522 34.9642 26.5039 35.1308C27.1885 35.1595 27.4829 35.0091 27.5102 34.6462C27.529 34.4085 27.1962 34.1162 26.8151 34.0588C26.7599 34.2499 26.7041 34.4419 26.6475 34.6364L26.6471 34.6379L26.647 34.6382ZM25.8745 35.3644C25.9498 35.3769 26.0181 35.3855 26.0809 35.3935C26.2113 35.41 26.3181 35.4236 26.4144 35.4623C26.4623 35.4855 26.5046 35.5189 26.5382 35.5602C26.5717 35.6016 26.5958 35.6498 26.6088 35.7014C26.6186 35.7644 26.5046 35.9049 26.4381 35.9112C26.2752 35.9252 26.0612 35.9336 25.9571 35.8413C25.8968 35.7843 25.8922 35.6653 25.8874 35.5402C25.8852 35.4809 25.8829 35.4203 25.8745 35.3644ZM25.1881 34.4092L25.1881 34.4093C25.1821 34.435 25.1761 34.461 25.1696 34.4869C25.4906 34.6462 25.5432 34.4585 25.5912 34.2872L25.5912 34.2872C25.6011 34.2517 25.6108 34.217 25.6227 34.1862C25.6472 34.131 25.5738 33.9764 25.5528 33.9764C25.2833 33.9989 25.2375 34.1961 25.1881 34.4092ZM27.6689 44.4379L28.1311 44.6763C28.1186 44.6943 28.1071 44.7162 28.0956 44.7382C28.0703 44.7865 28.045 44.8349 28.0094 44.8406C27.7773 44.8812 27.6423 44.7735 27.6689 44.4379ZM52.232 31.5121L52.232 31.5121C52.2603 31.2199 52.2849 30.9654 52.3379 30.7188C52.386 30.5169 52.4866 30.3314 52.6295 30.181C53.049 29.7398 53.3987 29.272 53.6084 28.6804C53.8056 28.1126 54.2448 27.7245 54.8972 27.7385C55.079 27.7385 55.3167 27.8448 55.4181 27.9833C55.4832 28.07 55.3929 28.3399 55.2957 28.4727C55.0447 28.8083 54.904 29.1842 54.7617 29.5648C54.7224 29.6696 54.6831 29.7748 54.6412 29.8796C54.416 30.4427 54.3416 31.0288 54.2673 31.6143C54.2124 32.0468 54.1576 32.479 54.042 32.9011C53.9818 33.1207 53.8049 33.4647 53.6602 33.4759L53.6328 33.4781C53.2094 33.5115 52.7004 33.5516 52.4861 33.0438C52.3699 32.7712 52.3061 32.4786 52.2509 32.2258L52.2509 32.2257C52.2291 32.1257 52.2087 32.0319 52.1869 31.948C52.2049 31.7925 52.2188 31.6482 52.232 31.5121ZM54.3018 34.8367C54.3797 34.6166 54.4457 34.3926 54.4997 34.1655C54.6235 33.5054 54.7291 33.4159 55.385 33.4291C55.4946 33.431 55.6005 33.3892 55.6794 33.3131C55.7136 33.2718 55.6619 33.0907 55.5983 33.0466L55.5712 33.0279C55.3989 32.9082 55.211 32.7778 55.0144 32.7453C54.4396 32.6509 54.4018 32.583 54.6172 32.0628C54.6852 31.8991 54.6901 31.7071 54.6949 31.5182C54.6964 31.4602 54.6978 31.4025 54.7011 31.3461C54.7361 30.7741 55.0507 30.3209 55.3724 29.893C55.5822 29.6133 56.0129 29.7867 56.1325 30.1559C56.1701 30.2729 56.2096 30.3891 56.249 30.5054L56.2975 30.6489L56.3919 30.6244L56.3918 30.624C56.2981 30.2339 56.2045 29.8439 56.1031 29.4231C56.151 29.4183 56.191 29.4115 56.2253 29.4057C56.2862 29.3954 56.3288 29.3882 56.3646 29.4007C56.6262 29.4916 56.8066 29.4007 56.966 29.191C57.0793 29.0399 57.1926 28.9476 57.366 29.184C58.0482 30.0955 58.4832 31.1679 58.6288 32.297C58.6978 32.7791 58.7973 33.2562 58.9267 33.7256C59.1253 34.4864 59.1211 35.2528 59.0756 36.0583C58.8211 34.9303 58.4216 33.8399 57.8869 32.8145L57.803 32.8453C57.8368 32.9319 57.8699 33.0188 57.9031 33.1056L57.9033 33.106C57.9669 33.2726 58.0306 33.439 58.0981 33.604C58.526 34.6423 58.4708 35.6605 57.9764 36.6632C57.9493 36.7186 57.9323 36.7788 57.9153 36.8391C57.9008 36.8907 57.8862 36.9424 57.8652 36.9911C57.7687 37.2107 57.7764 37.4694 58.0009 37.5163C58.1456 37.5464 58.3785 37.3555 58.5065 37.2072C58.5869 37.114 58.6273 36.9957 58.6679 36.8768L58.6679 36.8767C58.6919 36.8064 58.7159 36.7359 58.7484 36.6702C58.8073 36.5659 58.8744 36.4666 58.9491 36.373L59.0756 36.4094C59.0659 36.4889 59.0576 36.5687 59.0494 36.6485C59.0306 36.8313 59.0117 37.0141 58.9743 37.1932C58.9043 37.5226 58.8148 37.8484 58.7155 38.1722C58.6162 38.4959 58.4358 38.5547 58.2079 38.3379C58.1687 38.3006 58.1281 38.2645 58.0875 38.2284C57.892 38.0546 57.6959 37.8802 57.6485 37.5687C57.6283 37.4383 57.5172 37.3217 57.4062 37.2052C57.356 37.1524 57.3057 37.0997 57.2639 37.0457C57.2288 37.0969 57.193 37.1478 57.1572 37.1987C57.0659 37.3282 56.9747 37.4578 56.8954 37.5939C56.8589 37.6682 56.8533 37.754 56.88 37.8323C56.9314 37.9656 56.9727 38.103 57.0139 38.2403C57.1299 38.6261 57.2457 39.0116 57.5855 39.305C57.9177 39.5924 57.7806 39.9574 57.3534 40.0923C57.3031 40.1123 57.2578 40.143 57.2206 40.1822C57.1834 40.2215 57.1552 40.2683 57.138 40.3196C56.9838 41.0237 56.4049 41.1743 55.8439 41.3202L55.8171 41.3272C55.4562 41.4107 55.0881 41.4589 54.7179 41.4713C54.6235 41.4769 54.4501 41.365 54.4333 41.2825C54.3592 40.9423 54.3159 40.5962 54.3039 40.2483C54.291 39.7318 54.2936 39.2154 54.2962 38.698C54.2973 38.4861 54.2983 38.274 54.2983 38.0617C54.7878 38.0197 54.906 37.8778 54.7878 37.3624C54.7252 37.0932 54.6457 36.828 54.557 36.5322L54.5569 36.532C54.5169 36.3984 54.475 36.2586 54.4319 36.1094L53.9585 37.1198C53.9028 37.052 53.8478 36.9923 53.7966 36.9367C53.6977 36.8294 53.6127 36.7371 53.5634 36.6303C53.3536 36.1765 53.1439 35.7171 53.0159 35.2388C52.9519 34.9996 52.9882 34.7323 53.0232 34.474L53.0232 34.4738C53.0291 34.4301 53.035 34.3867 53.0404 34.3438C53.0488 34.2738 53.1956 34.1773 53.2886 34.1648C53.6152 34.1186 53.962 34.3584 54.0914 34.6843C54.1165 34.7336 54.1462 34.7805 54.1802 34.8242L54.3018 34.8367ZM57.3408 32.2306L57.4513 32.1509C57.2564 31.8801 57.0616 31.6097 56.8667 31.3398L56.7562 31.4195C56.9501 31.6894 57.145 31.9598 57.3408 32.2306Z" fill="#FF7F22"/>
</svg>
